<svg aria-hidden="true" style="position: absolute; width: 0; height: 0; overflow: hidden;" version="1.1" xmlns="http://www.w3.org/2000/svg" xmlns:xlink="http://www.w3.org/1999/xlink">
<defs>
<symbol id="icon-star-full" viewBox="0 0 32 32">
<title>star-full</title>
<path d="M32 12.408l-11.056-1.607-4.944-10.018-4.944 10.018-11.056 1.607 8 7.798-1.889 11.011 9.889-5.199 9.889 5.199-1.889-11.011 8-7.798z"></path>
</symbol>
<symbol id="icon-travel-case" viewBox="0 0 20 20">
<title>travel-case</title>
<path d="M14 5h2v14h-12v-14h2v-1c0-1.105 0.895-2 2-2v0h4c1.105 0 2 0.895 2 2v0 1zM17 5h1c1.105 0 2 0.895 2 2v0 10c0 1.105-0.895 2-2 2v0h-1v-14zM3 5v14h-1c-1.105 0-2-0.895-2-2v0-10c0-1.1 0.9-2 2-2h1zM8 4v1h4v-1h-4z"></path>
</symbol>
<symbol id="icon-office" viewBox="0 0 32 32">
<title>office</title>
<path d="M0 32h16v-32h-16v32zM10 4h4v4h-4v-4zM10 12h4v4h-4v-4zM10 20h4v4h-4v-4zM2 4h4v4h-4v-4zM2 12h4v4h-4v-4zM2 20h4v4h-4v-4zM18 10h14v2h-14zM18 32h4v-8h6v8h4v-18h-14z"></path>
</symbol>
<symbol id="icon-airplane" viewBox="0 0 32 32">
<title>airplane</title>
<path d="M24 19.999l-5.713-5.713 13.713-10.286-4-4-17.141 6.858-5.397-5.397c-1.556-1.556-3.728-1.928-4.828-0.828s-0.727 3.273 0.828 4.828l5.396 5.396-6.858 17.143 4 4 10.287-13.715 5.713 5.713v7.999h4l2-6 6-2v-4l-7.999 0z"></path>
</symbol>
</defs>
</svg>
